<svg xmlns="http://www.w3.org/2000/svg" viewBox="0 0 512 512">
  <!-- Background -->
  <rect width="512" height="512" rx="120" fill="#EFF6FF"/>
  
  <!-- Image icon with adjustments -->
  <g transform="translate(80, 80)">
    <!-- Main frame -->
    <rect x="0" y="0" width="352" height="280" rx="24" fill="white" stroke="#3B82F6" stroke-width="16"/>
    
    <!-- Abstract mountain landscape -->
    <path d="M16 200 L80 120 L144 180 L240 80 L336 200" stroke="#3B82F6" stroke-width="12" fill="none" stroke-linejoin="round" stroke-linecap="round"/>
    
    <!-- Sun/circle -->
    <circle cx="260" cy="110" r="40" stroke="#3B82F6" stroke-width="12" fill="#DBEAFE"/>
    
    <!-- Adjustment bars -->
    <g transform="translate(60, 240)">
      <!-- Brightness -->
      <g stroke="#3B82F6" stroke-width="6">
        <line x1="0" y1="0" x2="232" y2="0" stroke-linecap="round"/>
        <circle cx="60" cy="0" r="16" fill="white" stroke="#3B82F6" stroke-width="6"/>
      </g>
    </g>
    
    <!-- OpenCV reference (corner points) -->
    <circle cx="0" cy="0" r="12" fill="#3B82F6"/>
    <circle cx="352" cy="0" r="12" fill="#3B82F6"/>
    <circle cx="0" cy="280" r="12" fill="#3B82F6"/>
    <circle cx="352" cy="280" r="12" fill="#3B82F6"/>
  </g>
  
  <!-- Extra adjustment sliders -->
  <g transform="translate(100, 380)">
    <!-- Contrast slider -->
    <line x1="0" y1="0" x2="130" y2="0" stroke="#3B82F6" stroke-width="6" stroke-linecap="round"/>
    <circle cx="95" cy="0" r="16" fill="white" stroke="#3B82F6" stroke-width="6"/>
    
    <!-- Saturation slider -->
    <line x1="180" y1="0" x2="310" y2="0" stroke="#3B82F6" stroke-width="6" stroke-linecap="round"/>
    <circle cx="255" cy="0" r="16" fill="white" stroke="#3B82F6" stroke-width="6"/>
  </g>
</svg>